<svg xmlns="http://www.w3.org/2000/svg" viewBox="0 0 512 512" id="real-estate"><path fill="#4A60A1" d="M508 110.71L298 .85a7.57 7.57 0 00-7 0L81 110.71a7.52 7.52 0 00-4 6.65v39.26l214-112a7.51 7.51 0 017 0l214 112V117.36A7.52 7.52 0 00508 110.71zM489.5 390H229.14a123.94 123.94 0 01.86 14.5 122.66 122.66 0 01-3.84 30.5H489.5a22.5 22.5 0 000-45zM107.5 297A107.5 107.5 0 10215 404.5 107.62 107.62 0 00107.5 297zM128 449.1v13.55a7.51 7.51 0 01-8.44 7.45 7.7 7.7 0 01-6.56-7.73V451H103v11.65a7.51 7.51 0 01-8.44 7.45A7.7 7.7 0 0188 462.37V451H83.78a7.69 7.69 0 01-7.72-6.56A7.5 7.5 0 0183.5 436h34.36a12 12 0 10.2-24H97.33c-13.19 0-24.8-9.32-27-22.32A27 27 0 0188 359.53v-12.9a7.69 7.69 0 016.56-7.73 7.51 7.51 0 018.44 7.45V358h10V346.63a7.69 7.69 0 016.56-7.73 7.51 7.51 0 018.44 7.45V358h3.22a7.69 7.69 0 017.72 6.56A7.5 7.5 0 01131.5 373H97.14a12 12 0 10-.2 24h20.73c13.19 0 24.8 9.32 27 22.32A27 27 0 01128 449.1z"></path><path fill="#4A60A1" d="M482,375V157.86L294.5,59.77,107,157.86V282h.5a122.72,122.72,0,0,1,118.9,93H237V257.5A27.54,27.54,0,0,1,264.5,230h60A27.54,27.54,0,0,1,352,257.5V375Z"></path><path fill="#4A60A1" d="M264.5,245A12.52,12.52,0,0,0,252,257.5V375h85V257.5A12.52,12.52,0,0,0,324.5,245ZM322,325a7.5,7.5,0,0,1-15,0V310a7.5,7.5,0,0,1,15,0Z"></path></svg>